<?xml version="1.0" encoding="utf-8"?>
<!-- Generator: Adobe Illustrator 25.4.1, SVG Export Plug-In . SVG Version: 6.00 Build 0)  -->
<svg version="1.1" id="Layer_1" xmlns="http://www.w3.org/2000/svg" xmlns:xlink="http://www.w3.org/1999/xlink" x="0px" y="0px"
	 viewBox="0 0 916.8 612.1" style="enable-background:new 0 0 916.8 612.1;" xml:space="preserve">
<style type="text/css">
	.st0{fill:#FFB6B6;}
	.st1{fill:#2F2E41;}
	.st2{fill:#7D7D7D;}
	.st3{fill:#FFFFFF;}
	.st4{fill:#3F3D56;}
	.st5{fill:#E6E6E6;}
	.st6{opacity:0.2;enable-background:new    ;}
	.st7{fill:#A0616A;}
	.st8{fill:#CCCCCC;}
</style>
<polygon class="st0" points="893.4,591.2 884.3,595.1 865.1,562 878.5,556.3 "/>
<polygon class="st0" points="818.5,599.8 808.7,599.8 804,561.8 818.5,561.8 "/>
<path class="st1" d="M818.9,610l-30.3,0v-0.4c0-6.5,5.3-11.8,11.8-11.8h0l5.5-4.2l10.3,4.2l2.6,0L818.9,610z"/>
<path class="st1" d="M898.9,597.8L871,609.6l-0.2-0.4c-2.6-6,0.2-12.9,6.2-15.5l0,0l3.4-6l11.1-0.2l2.4-1L898.9,597.8z"/>
<path class="st1" d="M808.9,375.1l-15,91.1l4.1,13.6l-5.3,9.6l7.8,84.4l-3.2,7l8.9,5.5h18.1l1-76.4l4.5-11.2v-6.2l9.1-46.6l1.7,53.3
	l2.6,11.2l-2.2,8l2.9,5.6l24.9,53.5h20.3l-1.6-12.1l0,0c3.6-1.8-5.5-7.2-6.3-11.2l3-6.7l-3-12.7l-2.7-24.8l2.9-52.4L880,387
	c-6.8-9.1-14.4-16.2-23.7-18.2L808.9,375.1z"/>
<circle id="e3f68381-4551-4dde-a951-c654c55667ae" class="st0" cx="845.3" cy="234.6" r="20.5"/>
<path class="st0" d="M760.7,396.6c-1-4.4,1.8-8.7,6.1-9.6c0.5-0.1,0.9-0.2,1.4-0.2l8.3-27.5l9.6,11.4l-9.3,24.3
	c-0.1,4.5-3.8,8-8.3,7.9C764.7,402.9,761.5,400.3,760.7,396.6L760.7,396.6z"/>
<path id="eb9b57ee-86ab-410d-b03f-f9f5ae1c3330-101" class="st2" d="M814.3,283.7l-3.7-6.8l-4.8,1.6c0,0-5.3,3.4-12.6,16.2
	c-3.4,5.9-10.8,44-10.8,44l-17.2,45.6l17.6,3l14.7-37.6l17-36L814.3,283.7z"/>
<path class="st2" d="M844.6,374.8c14.4,0,29,2.8,35,13c-0.2-2.2-0.5-6-1-9.6l-1.5-9.4l1.5-8.7l2-2l-3.6-3.6l2.4-18.1l8.1-42.6
	c1.3-6.9-2.2-13.8-8.5-16.8l-7.7-3.7l-12.6-11.7l-22.7-0.2l-7.4,9.6l-19.5,6.6l3.3,67.8l-2.1,5c0.5,0.4,1.5,1.4,2,2
	c0.8,0.9-0.2,5.3-0.9,7.9l-0.9,6.8l2.9,2l-3.7,4.4l-0.7,5.6C812.5,378.3,828.5,374.8,844.6,374.8z"/>
<path class="st1" d="M850.6,254.2c0.1-0.2,0.2-0.4,0.3-0.6c0,0-0.1,0-0.1,0L850.6,254.2z"/>
<path class="st1" d="M866.4,215.1c-1-0.9-2.2-1.5-3.6-1.5c-1.3,0-2.7,1.2-2.4,2.5c-5-8.9-15.7-12.9-25.4-9.5
	c-3.3,1.2-6.5,3.5-7.3,6.9c-0.1,0.9-0.3,1.8-0.8,2.5c-0.8,0.9-2,1.2-3.1,0.8l0,0c-0.5-0.2-1.1,0.1-1.2,0.6c-0.1,0.3-0.1,0.5,0.1,0.8
	l0.9,1.7c-1.2,0.3-2.4,0.2-3.6-0.1c-0.5-0.1-1,0.2-1.2,0.7c-0.1,0.3,0,0.6,0.2,0.8c3.1,4.3,8.1,6.9,13.5,6.9c3.7,0,7.5-1.3,11.1-0.5
	c5.2,1.2,8.4,6.4,7.2,11.6c-0.2,0.7-0.4,1.3-0.7,1.9c1.1-1.2,3.3-0.9,4.4,0.3c1.1,1.3,1.5,3,1.3,4.6c-0.3,2.5-1.1,5-2.2,7.2
	c11.9-0.4,21.2-10.3,20.9-22.2C874.3,224.9,871.3,219,866.4,215.1L866.4,215.1z"/>
<path class="st3" d="M218.6,254.5c16.1-7.6,28.7-21,35.4-37.5c0.7-1.6,3.2-0.5,2.5,1.1c-7,17.2-20.2,31-36.9,38.9
	C218,257.8,217,255.3,218.6,254.5L218.6,254.5z"/>
<path class="st3" d="M648.6,192.5c16.1-7.6,28.7-21,35.4-37.5c0.7-1.6,3.2-0.5,2.5,1.1c-7,17.2-20.2,31-36.9,38.9
	C648,195.8,647,193.3,648.6,192.5L648.6,192.5z"/>
<path class="st4" d="M163.9,597l9.4,7.3l36.7,6.4l40.8-101.5c0,0,25-78.2,95-62.2l225-4c0,0,69.1-7.1,80.5,25.5
	c2.2,6.2,60.5,142.5,60.5,142.5l40.9-5.8L747.9,489l-97.1-225.5l-168.9-10.5l-174,12L163.9,597z"/>
<circle class="st1" cx="350.9" cy="389" r="65"/>
<circle class="st1" cx="568.9" cy="389" r="65"/>
<path class="st5" d="M274.9,176l26.8-5.2c0,0,201.5-28.8,328.9,5.2l-9.6,27l-337-2L274.9,176z"/>
<path class="st2" d="M546.6,315.5h-171c-20.8,0-38.7-14.4-42.7-34.2l-18.7-93.6c-0.8-4.1,0.1-8.4,2.6-11.8c2.6-3.6,6.6-5.9,10.9-6.4
	c90.2-11.2,179.5-11.2,265.5-0.1c4.3,0.5,8.2,2.8,10.8,6.4c2.5,3.4,3.4,7.6,2.7,11.7l-17.3,93.3
	C585.7,300.9,567.7,315.5,546.6,315.5z"/>
<path class="st4" d="M198.9,191.2l0.7-13.4c0.2-4.2,2.5-8.1,6.1-10.3c10.8-6.6,39.9-21.2,77.1-13.6c5.3,1.1,9.4,5.4,10.2,10.8l1,7
	L198.9,191.2z"/>
<path class="st4" d="M723,191.2l-95.2-19.4l1.6-11.2c0.4-2.7,2.4-4.9,5-5.6c42.9-10.8,75.7,8.3,84.7,14.5c1.7,1.2,2.8,3.1,3,5.2
	L723,191.2z"/>
<path class="st5" d="M168.6,605.7c-2.3,0-4.5-0.6-6.5-1.8c-25.5-14.9-41.4-42.2-47.2-81c-4.8-32.1-2.8-72.4,6-119.8
	c15.5-84,48.1-168,61.3-200.2c3.6-8.6,11-15,20.1-17.3c27.4-6.7,75.1-18,87.6-18c17.1,0,26.3,16.1,26.4,16.3l0.1,0.1l15,65.1v0.9
	c8.3,28,2.1,48.3-4.5,60.3c-7.2,13.1-16.5,19.6-16.6,19.7c-14.6,11.1-38.4,47-62.1,93.5c-24.6,48.4-42.9,96.1-48.8,127.7
	c-7.3,38.6-18,50.5-25.6,53.6C172.2,605.4,170.4,605.7,168.6,605.7z"/>
<path class="st5" d="M541,307.5H379.4c-19.7,0-36.6-14-40.3-33.3l-17.7-91c-1.6-8.1,3.7-16,11.9-17.6c0.3-0.1,0.6-0.1,0.9-0.2
	c85.2-10.9,169.6-10.9,250.8-0.1c8.2,1.1,14,8.7,12.8,16.9c0,0.2-0.1,0.4-0.1,0.7l-16.3,90.8C577.9,293.2,560.9,307.5,541,307.5z"/>
<path class="st5" d="M753.2,605.7c-1.8,0-3.5-0.4-5.2-1c-7.7-3.1-18.3-15-25.6-53.6c-5.9-31.6-24.2-79.3-48.8-127.7
	c-23.7-46.5-47.5-82.4-62.1-93.5c-0.1-0.1-9.4-6.6-16.6-19.7c-6.6-12-12.8-32.3-4.5-60.3l0-1.1l15-65.1l0-0.1
	c0.1-0.2,9.3-16.3,26.4-16.3c12.5,0,60.2,11.3,87.6,18c9.1,2.2,16.5,8.7,20.1,17.3l0,0C752.9,235,785.4,319,801,403
	c8.8,47.4,10.8,87.7,6,119.8c-5.8,38.9-21.7,66.2-47.2,81.1C757.8,605.1,755.5,605.7,753.2,605.7z"/>
<circle class="st4" cx="350.9" cy="378" r="39"/>
<circle class="st1" cx="350.9" cy="378" r="26"/>
<circle class="st4" cx="568.9" cy="378" r="39"/>
<circle class="st1" cx="568.9" cy="378" r="26"/>
<circle class="st1" cx="435.9" cy="328" r="3"/>
<circle class="st1" cx="448.9" cy="328" r="3"/>
<circle class="st1" cx="442.9" cy="339" r="3"/>
<circle class="st1" cx="454.9" cy="339" r="3"/>
<circle class="st1" cx="466.9" cy="339" r="3"/>
<circle class="st1" cx="478.9" cy="339" r="3"/>
<circle class="st1" cx="461.9" cy="328" r="3"/>
<circle class="st1" cx="474.9" cy="328" r="3"/>
<circle class="st1" cx="487.9" cy="328" r="3"/>
<path class="st1" d="M473.9,420.5h-26c-2.5,0-4.5-2-4.5-4.5s2-4.5,4.5-4.5h26c2.5,0,4.5,2,4.5,4.5S476.4,420.5,473.9,420.5z"/>
<path class="st4" d="M301.8,224.9c-3.5,0-6.5-2.4-7.2-5.7l-4-16.9c-0.9-4,1.5-8,5.6-9c4-0.9,8,1.5,9,5.5l4,16.9c0.9,4-1.6,8-5.6,9
	C302.9,224.8,302.4,224.9,301.8,224.9z"/>
<path class="st4" d="M621.1,223.9c-4.1,0-7.5-3.3-7.5-7.5c0-0.6,0.1-1.1,0.2-1.7l4-16.9c0.9-4,5-6.5,9-5.5c4,0.9,6.5,5,5.5,9
	l-4,16.9C627.5,221.5,624.5,223.9,621.1,223.9z"/>
<path class="st4" d="M246.8,274.8c-2.5,0-4.8-0.8-6.9-2.2l-8.4-5.9c-3.2-2.2-5.1-5.9-5.1-9.8v-17.9c0-7.5,6.1-13.6,13.6-13.6h12.8
	c7.5,0,13.6,6.1,13.6,13.6v18.1c0,3.8-1.8,7.4-4.9,9.6l-7.7,5.7C251.8,274,249.3,274.8,246.8,274.8z"/>
<path class="st4" d="M252.8,340.5H240c-7.5,0-13.6-6.1-13.6-13.6v-17.9c0-3.9,1.9-7.6,5.1-9.8l8.4-5.9c4.2-2.9,9.8-2.9,14,0.2
	l7.7,5.7c3.1,2.3,4.9,5.8,4.9,9.6v18.1C266.4,334.4,260.3,340.5,252.8,340.5z"/>
<path class="st4" d="M292.8,303h-17.9c-3.9,0-7.6-1.9-9.8-5.1l-5.9-8.4c-2.9-4.2-2.9-9.8,0.2-14l5.7-7.7c2.3-3.1,5.8-4.9,9.6-4.9
	h18.1c7.5,0,13.6,6.1,13.6,13.6v12.8C306.4,296.9,300.3,303,292.8,303z"/>
<path class="st4" d="M217,303H199c-7.5,0-13.6-6.1-13.6-13.6v-12.8c0-7.5,6.1-13.6,13.6-13.6h18.1c3.8,0,7.4,1.8,9.6,4.9l5.7,7.7
	c3,4.1,3.1,9.7,0.2,14l-5.9,8.4C224.5,301.1,220.9,303,217,303z"/>
<circle class="st4" cx="675.9" cy="232" r="23"/>
<circle class="st4" cx="726.9" cy="285" r="23"/>
<circle class="st4" cx="675.9" cy="335" r="23"/>
<circle class="st4" cx="624.9" cy="284" r="23"/>
<path class="st5" d="M726.9,300c-8.3,0-15-6.7-15-15c0-8.3,6.7-15,15-15s15,6.7,15,15l0,0C741.9,293.3,735.2,300,726.9,300z
	 M726.9,272c-7.2,0-13,5.8-13,13s5.8,13,13,13s13-5.8,13-13C739.9,277.8,734.1,272,726.9,272z"/>
<path class="st5" d="M692,243.1l-30.1-0.4l15.4-25.9L692,243.1z M665.4,240.8l23.2,0.3l-11.3-20.3L665.4,240.8z"/>
<path class="st5" d="M636.9,296h-24v-24h24V296z M614.9,294h20v-20h-20V294z"/>
<polygon class="st5" points="688.3,345.3 677.4,334.3 687,324.7 685.6,323.2 675.9,332.9 666.2,323.2 664.8,324.7 674.5,334.3 
	663.5,345.3 664.9,346.7 675.9,335.7 686.9,346.7 "/>
<polygon class="st6" points="867.4,344.5 828.6,373.7 872.4,354.5 "/>
<polygon class="st7" points="149.4,380.5 100.4,382.5 94.4,349.5 136.4,336.5 "/>
<path class="st7" d="M131.4,299.6l-10.9-11.1l13.4-20.5l22.9-38.2c-2-4.5-0.1-9.8,4.4-11.8s9.8-0.1,11.8,4.4s0.1,9.8-4.4,11.8
	c-0.3,0.1-0.6,0.3-0.9,0.4l-18.9,40.8L131.4,299.6z"/>
<path class="st2" d="M119.3,325c-2.6,4.1-7.4,6.2-12.2,5.5c-4.6-0.5-8.4-3.7-9.7-8.1c-1-3.1-0.5-6.4,1.2-9.2
	c7.3-12.3,20.8-28.6,20.9-28.8l0.2-0.3l22.7,4.9L119.3,325z"/>
<polygon class="st7" points="137.8,597.8 151.3,597.8 157.8,545.4 137.8,545.4 "/>
<path class="st1" d="M134.3,593.3l26.8,0h0c9.4,0,17.1,7.6,17.1,17.1v0.6l-43.8,0L134.3,593.3z"/>
<polygon class="st7" points="31.9,591.9 45.4,593.9 59.6,543.1 42,540.1 "/>
<path class="st1" d="M29.2,587l26.5,4l0,0c9.3,1.4,15.7,10.1,14.3,19.4l-0.1,0.5l-43.3-6.5L29.2,587z"/>
<path class="st1" d="M98.4,372.5l47-8l14.5,30l0.6,195.6l-25.8-0.2L124,431.6L55.2,577.9l-27.7-3.3l60.4-156.8
	c0,0-3.3-27.7,7.2-41.6L98.4,372.5z"/>
<path class="st2" d="M81,313.4c-1.5-4.4-0.2-9.3,3.2-12.4l6.7-6.1l18.8-3.2l11.8-2.1l18.9,54.8l-46,21.1c-4-0.9-5.6-3.1-3.3-7.5
	L81,313.4z"/>
<path class="st7" d="M123.2,331.9l13.1-8.4l17.3,17.3l32.6,30.3c4.8-1.1,9.6,2,10.7,6.8c1.1,4.8-2,9.6-6.8,10.7s-9.6-2-10.7-6.8
	c-0.1-0.3-0.1-0.6-0.2-1l-36-27L123.2,331.9z"/>
<path class="st2" d="M100.8,314.8c-3.4-3.4-4.6-8.5-2.9-13c1.5-4.3,5.4-7.4,9.9-7.8c3.2-0.3,6.4,0.8,8.7,3.1
	c10.5,9.7,23.7,26.3,23.8,26.4l0.2,0.3l-9.5,21.2L100.8,314.8z"/>
<circle class="st7" cx="101.5" cy="264.4" r="20.7"/>
<path class="st1" d="M84.7,293.9c-3.2,0-6.4-0.2-9.6-0.6l-0.4-0.1l-3.3-18.1c-2.9-15.9,7.1-31.3,22.8-35.2c1-0.3,2.1,0.1,2.8,0.9
	l0.8-0.3c12.8-4.5,26.8,2.3,31.2,15.1c0,0,0,0,0,0l0.2,0.6l-5.3,1.8c-6.1,2.1-9.4,8.8-7.2,15c0.3,0.8,0.6,1.5,1,2.2l5.4,9l-0.6,0.3
	C110.8,290.6,97.9,293.8,84.7,293.9z"/>
<path class="st0" d="M794.9,380.4c0.9-4.4,5.2-7.2,9.5-6.3c0.5,0.1,0.9,0.2,1.4,0.4l18.8-21.7l4,14.4l-18.5,18.4
	c-1.9,4-6.8,5.7-10.8,3.8C795.9,387.8,794.1,384.1,794.9,380.4z"/>
<path id="fb39b7b9-f69c-40b6-9f40-8573a72b247d-102" class="st2" d="M878.8,285.1l7.7-0.4l1.2,4.9c0,0-0.1,6.3-7.1,19.3
	c-7,13-61.4,71-61.4,71l-11.8-13.4l29.1-30l17.6-31.4L878.8,285.1z"/>
<path id="b116d6b4-a736-490c-92f3-c8fac06531ff-103" class="st8" d="M1.2,612.1h914.3c0.7,0,1.2-0.6,1.2-1.2s-0.6-1.2-1.2-1.2H1.2
	c-0.7,0-1.2,0.6-1.2,1.2S0.6,612.1,1.2,612.1L1.2,612.1z"/>
</svg>
