<?xml version="1.0" encoding="utf-8"?>
<!-- Generator: Adobe Illustrator 25.4.1, SVG Export Plug-In . SVG Version: 6.00 Build 0)  -->
<svg version="1.1" id="Layer_1" xmlns="http://www.w3.org/2000/svg" xmlns:xlink="http://www.w3.org/1999/xlink" x="0px" y="0px"
	 viewBox="0 0 917.1 601.2" style="enable-background:new 0 0 917.1 601.2;" xml:space="preserve">
<style type="text/css">
	.st0{fill:#E6E6E6;}
	.st1{fill:#FFFFFF;}
	.st2{fill:#FFB6B6;}
	.st3{fill:#2F2E41;}
	.st4{fill:#E4E4E4;}
	.st5{fill:#DC143C;}
	.st6{fill:#CACACA;}
</style>
<path class="st0" d="M476.1,6.6c-3.9,0-7,3.1-7,7v296c0,3.9,3.1,7,7,7h434c3.9,0,7-3.1,7-7v-296c0-3.9-3.1-7-7-7L476.1,6.6z"/>
<path class="st1" d="M486.1,16.6c-3.9,0-7,3.1-7,7v276c0,3.9,3.1,7,7,7h414c3.9,0,7-3.1,7-7v-276c0-3.9-3.1-7-7-7H486.1z"/>
<path class="st2" d="M330.2,331.6c-2.4-6.2,0.8-13.2,7-15.6c0.7-0.3,1.3-0.4,2-0.6l6.3-42.4l16.6,14.9l-8.5,38
	c0.8,6.7-3.9,12.7-10.6,13.5C337.4,340.1,332.1,336.8,330.2,331.6L330.2,331.6z"/>
<path class="st2" d="M214.4,338c4.1-5.3,3.1-12.9-2.2-16.9c-0.6-0.4-1.2-0.8-1.8-1.1l6.3-42.4l-20.2,9.4l-2.9,38.8
	c-2.7,6.1,0.1,13.3,6.2,16C205,344,211,342.5,214.4,338L214.4,338z"/>
<polygon class="st2" points="303.1,581.9 321.9,581.9 330.8,509.6 303.1,509.6 "/>
<path class="st3" d="M298.3,575.8l36.9,0h0c13,0,23.5,10.5,23.5,23.5v0.8l-60.4,0L298.3,575.8z"/>
<polygon class="st2" points="203.1,581.9 221.9,581.9 230.8,509.6 203.1,509.6 "/>
<path class="st3" d="M198.3,575.8l36.9,0h0c13,0,23.5,10.5,23.5,23.5v0.8l-60.4,0L198.3,575.8z"/>
<circle class="st2" cx="291.3" cy="54.7" r="33.8"/>
<path class="st3" d="M211.2,298.8c0,0,0.5,151.5-1.9,153.9s-11,93-11,93h30c2,0,53-197.3,53-197.3s21.8,106.4,18.1,112.4
	s-0.8,85.3,1.2,91.9c0,0,25.2,8.1,27.6,2s6-88,6-88l7-136l0.2-35.5L211.2,298.8z"/>
<path class="st4" d="M350.2,124.7h13.5c2,0,3.8,1.4,4.3,3.4c2.1,9.2,7.4,35.3,6.5,55.8c-1.2,25.4-3.6,65.3-3.6,68.9
	c0,3.6-12.1,59.2-12.1,59.2s-8.3-13.7-17.5-11.1l1.7-49.4l2.4-20.6l-3.6-36.3L350.2,124.7z"/>
<path class="st4" d="M264.4,102.6c0,0-42.9,14.3-47.7,26.4s18.6,99.7,18.6,99.7s-9,40-21.1,78c-5.5,17.3,46.9,2.5,71.1-6
	c15-5.2,42.7,2.8,58.3-0.1c0,0,2.4-32.6,0-38.7c-2.4-6-8.5-2.4-4.8-10.9c3.6-8.5,2.4-9.7,1.2-13.3s2.4-8.5,2.4-13.3
	s-1.2-15.7-1.2-15.7s32.6-76.2,25.4-83.4s-44.2-21.2-44.2-21.2S323.3,104.6,264.4,102.6z"/>
<path class="st4" d="M224.5,124.7l-4.3,2.1c-3.4,1.7-5.8,4.9-6.5,8.6l-17,90.8l-3.6,85.8c0,0,20.6-6,26.6,0c0,0-6-18.1-2.4-24.2
	c3.6-6,3.6-14.5,3.6-14.5s-2.4,0,3.6-6s7.3-8.5,6-9.7c-1.2-1.2-2.4-12.1-2.4-13.3s12.1-82.2,12.1-82.2L224.5,124.7z"/>
<path class="st5" d="M512.5,246.1c-1.1,0-2-0.9-2-2s0.9-2,2-2c92.4,0,180.5-18.5,248.2-52.1c63.4-31.5,103.8-74.2,110.9-117.2
	c0.2-1.1,1.2-1.8,2.3-1.7c1.1,0.2,1.8,1.2,1.7,2.3c0,0,0,0,0,0l0,0c-3.7,22.3-15.5,44.2-35.3,65.1c-19.5,20.6-45.6,39.1-77.7,55
	C694.3,227.4,605.5,246.1,512.5,246.1z"/>
<polygon class="st0" points="892.1,246.5 510.1,246.5 510.1,57.8 512.1,57.8 512.1,244.5 892.1,244.5 "/>
<path class="st3" d="M259.4,66.1c-1.5-3.8-1.8-8-0.7-12c2.8,7.3,8.3,5.1,11.1,1.7c3.5-4.3,2.5-14.3,8-14.7
	c5.5-0.4,11.1,0.6,16.5,1.6c-0.9-1.5-1.8-3.1-2.7-4.6c4,0.2,7.9,0.5,11.9,0.7c-1.2-1.9-2.4-3.9-3.5-5.8c10.9,3.8,19.6,12.1,24,22.7
	c7.5-12.2,3.8-28.2-8.5-35.8c-1.6-1-3.4-1.8-5.2-2.5c1.6-2,3.1-4.1,4.7-6.1l-31.7-3.1c-0.2-3.1,1.2-6.1,3.7-8
	c-4.2-0.9-8.6,0.5-12.1,2.9c-3.5,2.4-6.3,5.7-9.1,8.9c-4.2,4.9-8.4,9.9-11.1,15.7C248.9,40.5,250.7,55.3,259.4,66.1z M259.8,51.2
	L259.8,51.2L259.8,51.2L259.8,51.2z"/>
<path class="st6" d="M648.5,601.2H1.2c-0.7,0-1.2-0.5-1.2-1.2c0-0.7,0.5-1.2,1.2-1.2h647.3c0.7,0,1.2,0.5,1.2,1.2
	C649.7,600.7,649.1,601.2,648.5,601.2z"/>
</svg>
